# xmcd
#
# Track frame offsets:
#	150
#	18504
#	40268
#	66232
#	94159
#	121184
#	146498
#	173157
#	198051
#	224657
#	249317
#	271699
#
# Disc length: 3914 seconds
#
# Revision: 1
# Processed by: cddbd v1.5.2PL0 Copyright (c) Steve Scherf et al.
# Submitted via: EZCDAudioConverter 8.0.2.1
#
DISCID=a60f480c
DTITLE=Various Artist - Trên Những Niềm Đau
DYEAR=2000
DGENRE=World Pop
TTITLE0=Phương Thanh - Tình yêu thơ ngây
TTITLE1=Nhã Ca - Mơ ước xa tầm tay
TTITLE2=Lê Thiên Bảo - Hoài niệm dấu yêu
TTITLE3=Hoàng Nhung - Tình yêu khó quên
TTITLE4=Khánh Duy, Nhã Ca - Trên Những Niềm Đau
TTITLE5=Phương Thanh - Dạ khúc buồn
TTITLE6=Lê Thiên Bảo - Chia tay
TTITLE7=Nhã Ca - Thế là anh đã xa
TTITLE8=Khánh Duy  - Trái tim dại khờ
TTITLE9=Hoàng Nhung - Sóng
TTITLE10=Lam Trường - Hoàng hôn cũng say
TTITLE11=Duy Khánh - Trái tim lầm lỡ
EXTD=
EXTT0=
EXTT1=
EXTT2=
EXTT3=
EXTT4=
EXTT5=
EXTT6=
EXTT7=
EXTT8=
EXTT9=
EXTT10=
EXTT11=
PLAYORDER=
